<svg width="828" height="502" viewBox="0 0 828 502" fill="none" xmlns="http://www.w3.org/2000/svg">
<path opacity="0.2" fill-rule="evenodd" clip-rule="evenodd" d="M481 443C619.623 443 732 437.499 732 430.714C732 420.517 695.754 420.517 618.108 418.428C582.287 417.465 524.763 418.428 481 418.428C342.377 418.428 230 423.929 230 430.714C230 437.499 342.377 443 481 443Z" fill="#3A3771"/>
<path opacity="0.1" fill-rule="evenodd" clip-rule="evenodd" d="M701.689 76.8704C749.178 86.297 745.343 140.938 772.993 153.414C795.479 163.56 853.899 205.755 814.925 270H352C390.533 250.854 447.09 213.391 457.949 167.612C474.236 98.9422 519.385 182.669 539.83 167.612C560.275 152.555 564.664 96.2518 602.166 117.202C639.668 138.153 654.201 67.4438 701.689 76.8704Z" fill="url(#paint0_linear)"/>
<path opacity="0.1" fill-rule="evenodd" clip-rule="evenodd" d="M284.102 486.913C190.923 540.727 662.629 433.6 662.629 429.462C662.629 428.449 666.347 419.591 650.242 418.709C600.552 415.99 469.533 421.968 331.36 421.968C148.406 421.968 -4.28822 415.723 0.0919557 429.462C4.47213 443.2 377.281 433.099 284.102 486.913Z" fill="#3A3771"/>
<path d="M372 326.966C372 275.07 414.07 233 465.966 233H475C486.598 233 496 242.402 496 254V326C496 334.837 488.837 342 480 342H387.034C378.731 342 372 335.269 372 326.966Z" fill="#A26541"/>
<path opacity="0.5" d="M421 342L410 435" stroke="#2D1D2A" stroke-width="2.99376" stroke-linecap="round"/>
<path opacity="0.5" d="M389 342L378 435" stroke="#2D1D2A" stroke-width="2.99376" stroke-linecap="round"/>
<path opacity="0.5" d="M474 342L486 435" stroke="#2D1D2A" stroke-width="2.99376" stroke-linecap="round"/>
<path opacity="0.5" d="M442 342L453 435" stroke="#2D1D2A" stroke-width="2.99376" stroke-linecap="round"/>
<path d="M398 233H470V314C470 316.209 468.209 318 466 318H398V233Z" fill="url(#paint1_linear)"/>
<rect x="240" y="251" width="124" height="5" fill="url(#paint2_linear)"/>
<path opacity="0.5" fill-rule="evenodd" clip-rule="evenodd" d="M130.538 153.93C129.839 152.598 130.805 151 132.309 151H249.582C251.069 151 252.433 151.824 253.124 153.141L292.462 228.07C293.161 229.402 292.195 231 290.691 231H172.209C171.466 231 170.784 230.588 170.438 229.93L130.538 153.93Z" fill="url(#paint3_linear)"/>
<path fill-rule="evenodd" clip-rule="evenodd" d="M127.538 153.93C126.839 152.598 127.805 151 129.309 151H246.582C248.069 151 249.433 151.824 250.124 153.141L289.462 228.07C290.161 229.402 289.195 231 287.691 231H169.209C168.466 231 167.784 230.588 167.438 229.93L127.538 153.93Z" fill="url(#paint4_linear)"/>
<path fill-rule="evenodd" clip-rule="evenodd" d="M127.538 153.93C126.839 152.598 127.805 151 129.309 151H139L181 231H170.418C168.931 231 167.567 230.176 166.876 228.859L127.538 153.93Z" fill="url(#paint5_linear)"/>
<path fill-rule="evenodd" clip-rule="evenodd" d="M194.576 231L170.489 183.911C169.808 182.58 170.775 181 172.27 181H265.18L290 230.333L194.576 231Z" fill="url(#paint6_linear)"/>
<path opacity="0.3" d="M164.329 171.055H188.319" stroke="white" stroke-width="1.5"/>
<path d="M160.329 164.055H204.319" stroke="white" stroke-width="1.5"/>
<path fill-rule="evenodd" clip-rule="evenodd" d="M267.472 162.949C273.269 156.28 271.042 144.853 262.497 137.425C253.952 129.997 242.326 129.382 236.528 136.051C230.731 142.72 232.958 154.148 241.503 161.575C250.048 169.003 261.674 169.618 267.472 162.949Z" fill="url(#paint7_linear)"/>
<path fill-rule="evenodd" clip-rule="evenodd" d="M258.17 155.732C260.706 152.815 259.552 147.659 255.592 144.217C251.633 140.775 246.367 140.35 243.83 143.267C241.294 146.185 242.448 151.341 246.408 154.783C250.367 158.225 255.633 158.65 258.17 155.732Z" stroke="white" stroke-width="2"/>
<path d="M256 149L257.35 146L263 148.126" stroke="white" stroke-width="1.5" stroke-linecap="round" stroke-linejoin="round"/>
<path d="M247 151L245.65 154L240 151.874" stroke="white" stroke-width="1.5" stroke-linecap="round" stroke-linejoin="round"/>
<path opacity="0.5" fill-rule="evenodd" clip-rule="evenodd" d="M89.4737 223.67C88.8115 222.47 89.6793 221 91.0496 221H136.758C138.069 221 139.277 221.713 139.91 222.86L165.726 269.63C166.388 270.83 165.521 272.3 164.15 272.3H118.442C117.131 272.3 115.923 271.587 115.29 270.44L89.4737 223.67Z" fill="url(#paint8_linear)"/>
<path fill-rule="evenodd" clip-rule="evenodd" d="M86.4737 223.67C85.8115 222.47 86.6793 221 88.0496 221H133.758C135.069 221 136.277 221.713 136.91 222.86L162.726 269.63C163.388 270.83 162.521 272.3 161.15 272.3H115.442C114.131 272.3 112.923 271.587 112.29 270.44L86.4737 223.67Z" fill="url(#paint9_linear)"/>
<path fill-rule="evenodd" clip-rule="evenodd" d="M136.011 260.64C138.946 257.264 137.828 251.487 133.514 247.737C129.2 243.987 123.324 243.684 120.389 247.06C117.454 250.436 118.572 256.213 122.886 259.963C127.2 263.713 133.076 264.016 136.011 260.64Z" fill="white"/>
<path d="M124.6 254.5L125.873 251.067L131.2 253.5" stroke="#E86A63" stroke-width="1.5" stroke-linecap="round" stroke-linejoin="round"/>
<path d="M126.111 251.812L129.991 257.489" stroke="#E86A63" stroke-width="1.5" stroke-linecap="round" stroke-linejoin="round"/>
<path opacity="0.5" d="M108.4 236.75H129.991" stroke="white" stroke-width="1.35"/>
<path d="M105.7 231.35H127.291" stroke="white" stroke-width="1.35"/>
<path opacity="0.5" fill-rule="evenodd" clip-rule="evenodd" d="M29.4737 223.67C28.8115 222.47 29.6793 221 31.0496 221H76.7584C78.0693 221 79.2766 221.713 79.9101 222.86L105.726 269.63C106.388 270.83 105.521 272.3 104.15 272.3H58.4416C57.1307 272.3 55.9234 271.587 55.2899 270.44L29.4737 223.67Z" fill="url(#paint10_linear)"/>
<path fill-rule="evenodd" clip-rule="evenodd" d="M26.4737 223.67C25.8115 222.47 26.6793 221 28.0496 221H73.7584C75.0693 221 76.2766 221.713 76.9101 222.86L102.726 269.63C103.388 270.83 102.521 272.3 101.15 272.3H55.4416C54.1307 272.3 52.9234 271.587 52.2899 270.44L26.4737 223.67Z" fill="url(#paint11_linear)"/>
<path fill-rule="evenodd" clip-rule="evenodd" d="M76.0112 260.64C78.9461 257.264 77.8281 251.487 73.5141 247.737C69.2 243.987 63.3236 243.684 60.3888 247.06C57.4539 250.436 58.5719 256.213 62.8859 259.963C67.2 263.713 73.0764 264.016 76.0112 260.64Z" fill="white"/>
<path d="M64.6 254.5L65.8733 251.067L71.2004 253.5" stroke="#4692FF" stroke-width="1.5" stroke-linecap="round" stroke-linejoin="round"/>
<path d="M66.1111 251.812L69.9911 257.489" stroke="#4692FF" stroke-width="1.5" stroke-linecap="round" stroke-linejoin="round"/>
<path opacity="0.5" d="M48.4 236.75H69.9911" stroke="white" stroke-width="1.35"/>
<path d="M45.7 231.35H67.2911" stroke="white" stroke-width="1.35"/>
<path opacity="0.5" fill-rule="evenodd" clip-rule="evenodd" d="M216 204H298L326 257H244L216 204Z" fill="url(#paint12_linear)"/>
<path fill-rule="evenodd" clip-rule="evenodd" d="M213 204H295L323 257H241L213 204Z" fill="url(#paint13_linear)"/>
<path fill-rule="evenodd" clip-rule="evenodd" d="M213 204L323 257H241L213 204Z" fill="url(#paint14_linear)"/>
<path fill-rule="evenodd" clip-rule="evenodd" d="M270.178 235.479C272.294 233.704 272.138 230.036 269.83 227.286C267.523 224.536 263.937 223.746 261.822 225.521C259.707 227.296 259.862 230.964 262.17 233.714C264.477 236.464 268.063 237.254 270.178 235.479Z" fill="white"/>
<path fill-rule="evenodd" clip-rule="evenodd" d="M373.754 237.241V255.266H414.203C414.203 255.266 424.306 255.932 426.495 241.319C428.683 226.706 406.813 198.747 403.746 197.223C400.679 195.699 395.133 195.958 392.557 200.757C389.981 205.556 404.746 236.374 404.746 236.374L373.754 237.241Z" fill="url(#paint15_linear)"/>
<path d="M380.843 249.158L377.946 232.725" stroke="#3A3771"/>
<path fill-rule="evenodd" clip-rule="evenodd" d="M337.646 240.872C336.666 240.774 335.683 241.04 334.888 241.621L330.333 244.945L320.891 251.494H346.754L375.387 251L374.754 242.241H351.257L337.646 240.872Z" fill="url(#paint16_linear)"/>
<path fill-rule="evenodd" clip-rule="evenodd" d="M384.341 281.365C384.341 281.365 327 297.979 318.228 310.028C309.457 322.076 324.127 385.859 324.127 385.859C324.127 385.859 393.281 406.371 386.952 382.917C380.623 359.462 373.714 338.765 373.714 338.765C373.714 338.765 402.308 334.043 420 329.252C437.692 324.46 447.5 310.028 447.5 310.028L384.341 281.365Z" fill="#2F2C61"/>
<path opacity="0.1" fill-rule="evenodd" clip-rule="evenodd" d="M384.341 281.365C384.341 281.365 327 297.979 318.228 310.028C309.457 322.076 324.127 385.859 324.127 385.859C324.127 385.859 341.378 390.665 349.655 392.366C357.932 394.066 366.981 394.663 366.981 394.663C366.981 394.663 312.355 306.535 338.321 318C364 329.339 388.464 288.543 388.464 288.543L384.341 281.365Z" fill="url(#paint17_linear)"/>
<path d="M314.946 372.24C314.946 372.24 339.294 379.563 355.136 381.896C370.979 384.229 375.17 383.575 375.17 383.575" stroke="#98B1FB"/>
<path d="M352.623 426.769C352.623 426.769 354.145 429.195 354.253 430.821C354.322 431.854 353.934 434.249 353.641 435.86C353.47 436.802 352.677 437.495 351.721 437.56C347.472 437.847 336.096 438.65 332.974 439.207C329.11 439.897 319.756 439.948 319.684 438.585C319.549 436 337.823 429.967 337.823 429.967L352.623 426.769Z" fill="#2D1D2A"/>
<path fill-rule="evenodd" clip-rule="evenodd" d="M335.826 388.5C335.826 388.5 341.791 421.425 341.525 424.353C341.258 427.281 338.679 429.503 338.679 429.503C338.679 429.503 330.386 432.567 333.897 433.098C337.409 433.628 352.162 427.401 352.162 427.401L352.5 393.124L335.826 388.5Z" fill="url(#paint18_linear)"/>
<path d="M396.066 419.998C396.066 419.998 398.972 422.168 399.841 423.611C400.401 424.539 401.249 427.045 401.782 428.712C402.08 429.644 401.684 430.649 400.843 431.148C397.627 433.055 389.926 437.665 387.473 439.521C384.344 441.889 376.032 446.181 375.35 445C374.056 442.758 385.505 431.289 385.505 431.289L396.066 419.998Z" fill="#2D1D2A"/>
<path fill-rule="evenodd" clip-rule="evenodd" d="M366.981 394.662C366.981 394.662 384.856 420.975 385.948 423.705C387.039 426.435 385.75 429.585 385.75 429.585C385.75 429.585 382.192 434.829 385.433 433.651C388.674 432.473 395.872 420.5 395.872 420.5L384.179 392.032C384.179 392.032 383.4 393.268 379.303 393.894C375.205 394.521 366.981 394.662 366.981 394.662Z" fill="#FDA181"/>
<path opacity="0.4" fill-rule="evenodd" clip-rule="evenodd" d="M365.378 287.365C365.378 287.365 383.155 293.213 392.5 314.741C401.845 336.269 429.076 326.048 429.076 326.048C429.076 326.048 440.873 317.816 443.58 314.741C446.288 311.666 446 306.253 446 306.253C446 306.253 428.646 304.9 413.672 294.404C398.698 283.908 386.25 280.792 386.25 280.792L365.378 287.365Z" fill="#1F1950"/>
<path opacity="0.4" fill-rule="evenodd" clip-rule="evenodd" d="M307.5 155C310.538 155 313 152.538 313 149.5C313 146.462 310.538 144 307.5 144C304.462 144 302 146.462 302 149.5C302 152.538 304.462 155 307.5 155Z" fill="#FFD7E6"/>
<path opacity="0.3" fill-rule="evenodd" clip-rule="evenodd" d="M158 75C160.209 75 162 73.2091 162 71C162 68.7909 160.209 67 158 67C155.791 67 154 68.7909 154 71C154 73.2091 155.791 75 158 75Z" fill="#A7DFF2"/>
<path opacity="0.3" fill-rule="evenodd" clip-rule="evenodd" d="M528 35C530.209 35 532 33.2091 532 31C532 28.7909 530.209 27 528 27C525.791 27 524 28.7909 524 31C524 33.2091 525.791 35 528 35Z" fill="#A7DFF2"/>
<path opacity="0.3" fill-rule="evenodd" clip-rule="evenodd" d="M77.5 189C81.6421 189 85 185.642 85 181.5C85 177.358 81.6421 174 77.5 174C73.3579 174 70 177.358 70 181.5C70 185.642 73.3579 189 77.5 189Z" fill="#A7DFF2"/>
<path opacity="0.2" fill-rule="evenodd" clip-rule="evenodd" d="M348 12C351.314 12 354 9.31371 354 6C354 2.68629 351.314 0 348 0C344.686 0 342 2.68629 342 6C342 9.31371 344.686 12 348 12Z" fill="#D8D8D8"/>
<path opacity="0.7" fill-rule="evenodd" clip-rule="evenodd" d="M441 88C443.209 88 445 86.2091 445 84C445 81.7909 443.209 80 441 80C438.791 80 437 81.7909 437 84C437 86.2091 438.791 88 441 88Z" fill="#D8D8D8"/>
<path fill-rule="evenodd" clip-rule="evenodd" d="M434.534 198.712C437.808 199.372 441.67 203.648 442.375 210.144C443.08 216.64 446.104 262.842 446.104 262.842C446.104 262.842 455.422 297.709 450 307.641C444.578 317.573 421.933 322.255 408.204 310.005C394.475 297.755 382.948 279.752 382.948 279.752C382.948 279.752 387.787 281.905 390.551 266C393.314 250.095 395.533 222.546 395.533 222.546C395.533 222.546 390.826 207.902 395.633 202.365C400.439 196.828 431.26 198.053 434.534 198.712Z" fill="url(#paint19_linear)"/>
<mask id="mask0" mask-type="alpha" maskUnits="userSpaceOnUse" x="380" y="194" width="81" height="126">
<path fill-rule="evenodd" clip-rule="evenodd" d="M434.534 198.712C437.808 199.372 441.67 203.648 442.375 210.144C443.08 216.64 446.104 262.842 446.104 262.842C446.104 262.842 455.422 297.709 450 307.641C444.578 317.573 421.933 322.255 408.204 310.005C394.475 297.755 382.948 279.752 382.948 279.752C382.948 279.752 387.787 281.905 390.551 266C393.314 250.095 395.533 222.546 395.533 222.546C395.533 222.546 390.826 207.902 395.633 202.365C400.439 196.828 431.26 198.053 434.534 198.712Z" fill="white"/>
</mask>
<g mask="url(#mask0)">
<path opacity="0.2" fill-rule="evenodd" clip-rule="evenodd" d="M388.464 272.462L387.578 277.547C387.578 277.547 411.516 293.83 422.758 297.979C434 302.127 447.447 305.028 450.098 303.652C453.328 301.976 451.815 291.157 451.815 291.157L388.464 272.462Z" fill="url(#paint20_linear)"/>
</g>
<path fill-rule="evenodd" clip-rule="evenodd" d="M435.72 185.161C438.993 185.821 442.856 190.096 443.561 196.593C444.266 203.089 447.289 258.29 447.289 258.29C447.289 258.29 455.184 281.471 452.9 289.509C450.616 297.547 427.255 288.539 415.07 285.184C402.885 281.828 386.045 271.098 386.045 271.098C386.045 271.098 396.818 248.776 389.934 230.593C385.611 219.177 388.852 210.231 392.073 201.981C393.982 197.091 395.03 190.874 396.818 188.813C401.625 183.277 432.446 184.501 435.72 185.161Z" fill="#3A3771"/>
<mask id="mask1" mask-type="alpha" maskUnits="userSpaceOnUse" x="381" y="181" width="82" height="113">
<path fill-rule="evenodd" clip-rule="evenodd" d="M435.72 185.161C438.993 185.821 442.856 190.096 443.561 196.593C444.266 203.089 447.289 258.29 447.289 258.29C447.289 258.29 455.184 281.471 452.9 289.509C450.616 297.547 427.255 288.539 415.07 285.184C402.885 281.828 386.045 271.098 386.045 271.098C386.045 271.098 396.818 248.776 389.934 230.593C385.611 219.177 388.852 210.231 392.073 201.981C393.982 197.091 395.03 190.874 396.818 188.813C401.625 183.277 432.446 184.501 435.72 185.161Z" fill="white"/>
</mask>
<g mask="url(#mask1)">
<path fill-rule="evenodd" clip-rule="evenodd" d="M402.673 216.598C403.757 216.693 404.714 215.888 404.809 214.801C404.904 213.714 404.102 212.756 403.017 212.661C401.932 212.566 400.976 213.37 400.88 214.457C400.785 215.545 401.588 216.503 402.673 216.598Z" fill="#84A0F8"/>
<path fill-rule="evenodd" clip-rule="evenodd" d="M401.673 223.598C402.757 223.693 403.714 222.888 403.809 221.801C403.904 220.714 403.102 219.756 402.017 219.661C400.932 219.566 399.976 220.37 399.88 221.457C399.785 222.545 400.588 223.503 401.673 223.598Z" fill="#84A0F8"/>
<path fill-rule="evenodd" clip-rule="evenodd" d="M428.217 202.322L447.285 258.536C447.285 258.536 457.099 301.687 452.966 308.562C448.832 315.438 407.497 300.994 407.497 300.994C407.497 300.994 422.521 277.595 425.964 258.536C429.406 239.477 428.217 202.322 428.217 202.322Z" fill="#2F2C61"/>
<path fill-rule="evenodd" clip-rule="evenodd" d="M405.976 187.161C405.976 187.161 407.726 185.848 412.526 185.836C417.326 185.824 422.248 185.978 422.248 185.978C422.248 185.978 412.618 208.293 405.28 207.581C397.942 206.869 405.976 187.161 405.976 187.161Z" fill="#FDA181"/>
</g>
<path fill-rule="evenodd" clip-rule="evenodd" d="M398.787 188.252C403.595 190.441 410.178 187.725 413.342 182.51C414.87 179.992 412.095 162.192 412.095 162.192L404.933 163.329L399.666 154.817C399.666 154.817 393.98 186.064 398.787 188.252Z" fill="#D74D4E"/>
<path fill-rule="evenodd" clip-rule="evenodd" d="M393.659 151.181C394.12 149.124 401.648 136.757 414.072 142.941C426.496 149.124 430.145 153.893 429.462 161.625C428.779 169.358 420.559 171.382 417.936 173.304C415.313 175.226 412.962 174.925 412.962 174.925L409.086 165.165L403.745 160.536C403.745 160.536 392.202 157.676 393.659 151.181Z" fill="#BD3246"/>
<mask id="mask2" mask-type="alpha" maskUnits="userSpaceOnUse" x="391" y="136" width="42" height="43">
<path fill-rule="evenodd" clip-rule="evenodd" d="M393.659 151.181C394.12 149.124 401.648 136.757 414.072 142.941C426.496 149.124 430.145 153.893 429.462 161.625C428.779 169.358 420.559 171.382 417.936 173.304C415.313 175.226 412.962 174.925 412.962 174.925L409.086 165.165L403.745 160.536C403.745 160.536 392.202 157.676 393.659 151.181Z" fill="white"/>
</mask>
<g mask="url(#mask2)">
</g>
<path d="M408.066 173.399L415.732 173L416.639 186.524L408.754 186.874L408.066 173.399Z" fill="#FDA181"/>
<path fill-rule="evenodd" clip-rule="evenodd" d="M400.346 154.876C399.184 154.775 398.06 158.878 398.06 158.878C398.06 158.878 397.749 163.01 397.297 164.295C395.875 168.344 394.391 169.625 394.492 170.21C394.7 171.419 399.125 171.078 399.125 171.078C399.125 171.078 398.607 178.893 401.237 180.088C403.867 181.282 408.749 178.491 410.029 177.683C411.309 176.876 415.861 172.052 415.861 172.052C415.861 172.052 412.208 160.542 408.867 158.973C405.527 157.403 401.801 155.004 400.346 154.876Z" fill="#FDA181"/>
<path fill-rule="evenodd" clip-rule="evenodd" d="M402.582 167.52C404.233 167.664 405.707 166.22 405.876 164.295C406.044 162.369 404.843 160.691 403.192 160.547C401.542 160.402 400.067 161.846 399.899 163.772C399.73 165.697 400.932 167.376 402.582 167.52Z" stroke="#3A3771"/>
<path fill-rule="evenodd" clip-rule="evenodd" d="M394.586 167.433C395.686 167.529 396.715 166.046 396.883 164.12C397.052 162.195 396.296 160.556 395.196 160.459C394.096 160.363 393.067 161.846 392.899 163.772C392.73 165.697 393.486 167.337 394.586 167.433Z" stroke="#3A3771"/>
<path d="M396.598 163.946L399.594 163.946" stroke="#3A3771"/>
<path d="M405.543 163.574L410.554 163.489" stroke="#3A3771"/>
<path fill-rule="evenodd" clip-rule="evenodd" d="M407.43 158.231C407.43 158.231 409.586 159.235 410.387 160.836C411.188 162.436 407.487 181.616 412.951 186.937C418.415 192.257 429.283 189.28 432.623 183.678C433.398 182.377 429.694 179.127 428.35 171.002C427.829 167.854 429.73 158.559 429.73 158.559L419.034 165.254L412.925 158.712L407.43 158.231Z" fill="#BD3246"/>
<path fill-rule="evenodd" clip-rule="evenodd" d="M401.754 241.241L403.754 257.266H450.203C450.203 257.266 460.306 257.932 462.495 243.319C464.683 228.706 442.813 186.747 439.746 185.223C436.679 183.699 431.133 183.958 428.557 188.757C425.981 193.556 440.746 239.374 440.746 239.374L401.754 241.241Z" fill="url(#paint21_linear)"/>
<path d="M343.895 256.396C343.895 251.425 347.924 247.396 352.895 247.396H359.895C364.865 247.396 368.895 251.425 368.895 256.396H343.895Z" fill="white"/>
<path fill-rule="evenodd" clip-rule="evenodd" d="M403.08 245.256L380.398 246.46L353.895 244.349L354.891 247.042L364.698 248.945L354.891 256.494H404.08L403.08 245.256Z" fill="#FDA181"/>
<path d="M439.746 239.374L446.658 239.143" stroke="#3A3771"/>
<path d="M409.395 252.285L407.395 235.598" stroke="#3A3771"/>
<path d="M201.535 265.069L181.535 435.577" stroke="#2D1D2A" stroke-width="2.99376" stroke-linecap="round"/>
<path d="M261.413 265.069L281.413 435.577" stroke="#2D1D2A" stroke-width="2.99376" stroke-linecap="round"/>
<path d="M187.315 394.663H275.953" stroke="#2D1D2A" stroke-width="2.99376" stroke-linecap="round"/>
<path d="M441.535 265.069L421.535 435.577" stroke="#2D1D2A" stroke-width="2.99376" stroke-linecap="round"/>
<path d="M501.413 265.069L521.413 435.577" stroke="#2D1D2A" stroke-width="2.99376" stroke-linecap="round"/>
<path d="M427.315 394.663H515.953" stroke="#2D1D2A" stroke-width="2.99376" stroke-linecap="round"/>
<path d="M191 269.149C191 261.887 196.887 256 204.149 256H510.172C517.434 256 523.32 261.887 523.32 269.149C523.32 269.343 523.163 269.5 522.969 269.5H191.351C191.157 269.5 191 269.343 191 269.149Z" fill="#A26541"/>
<path d="M257.906 269.322C257.906 261.964 263.87 256 271.228 256L509.999 256C517.356 256 523.32 261.964 523.32 269.322C523.32 269.42 523.241 269.5 523.142 269.5H258.084C257.986 269.5 257.906 269.42 257.906 269.322Z" fill="url(#paint22_linear)"/>
<path fill-rule="evenodd" clip-rule="evenodd" d="M127.12 401.986C127.12 401.986 120.213 371.794 110.287 374.174C100.36 376.554 110.027 392.074 115.668 396.127C121.309 400.179 127.12 401.986 127.12 401.986Z" fill="url(#paint23_linear)"/>
<path fill-rule="evenodd" clip-rule="evenodd" d="M129 410C129 410 136.665 385.95 140.984 384.158C145.303 382.365 144.696 396.315 140.984 401.714C137.273 407.113 129 410 129 410Z" fill="url(#paint24_linear)"/>
<path d="M133.428 423.43C133.428 423.43 130.772 411.638 127.951 405.712C125.131 399.785 116.56 387.993 116.56 387.993" stroke="#418DFF"/>
<path fill-rule="evenodd" clip-rule="evenodd" d="M588.656 367.583C588.656 367.583 596.944 331.353 608.856 334.209C620.768 337.065 609.168 355.689 602.399 360.552C595.63 365.415 588.656 367.583 588.656 367.583Z" fill="url(#paint25_linear)"/>
<path fill-rule="evenodd" clip-rule="evenodd" d="M583.304 382.425C583.304 382.425 576.352 350.349 570.658 347.98C564.963 345.611 565.765 364.048 570.658 371.183C575.551 378.318 583.304 382.425 583.304 382.425Z" fill="url(#paint26_linear)"/>
<path fill-rule="evenodd" clip-rule="evenodd" d="M591.972 404.785C585.997 402.09 584.596 388.517 591.298 381.825C598 375.134 600.661 377.824 605.496 376.323C611.007 374.612 618.097 373.732 621.967 375.134C635.277 379.955 621.707 392.956 612.138 395.471C602.569 397.985 605.363 410.827 591.972 404.785Z" fill="url(#paint27_linear)"/>
<path d="M571.605 427.369C571.605 427.369 580.418 390.572 585.951 376.134C591.484 361.696 600.298 352.5 600.298 352.5" stroke="#D74D4E" stroke-width="1.5"/>
<path d="M575.605 413.369C575.605 413.369 583.249 402.82 587.502 398.605C591.754 394.389 600.298 388.892 600.298 388.892" stroke="#F69177" stroke-width="1.5"/>
<path fill-rule="evenodd" clip-rule="evenodd" d="M328.4 104.8C342.98 104.8 354.8 92.9803 354.8 78.4C354.8 63.8197 342.98 52 328.4 52C313.82 52 302 63.8197 302 78.4C302 92.9803 313.82 104.8 328.4 104.8Z" fill="url(#paint28_linear)"/>
<path d="M323.211 70.3664C323.769 70.689 324.181 71.122 324.447 71.6656C324.727 72.2054 324.835 72.806 324.772 73.4674C324.719 74.134 324.497 74.8043 324.108 75.4783C323.719 76.1522 323.252 76.6747 322.707 77.0457C322.175 77.4129 321.613 77.6086 321.02 77.6326C320.426 77.6566 319.846 77.5048 319.278 77.1771C318.862 76.9365 318.525 76.6295 318.267 76.2562C318.019 75.8881 317.879 75.5058 317.847 75.1094L315.989 78.3285L313.621 76.9614L318.782 68.0224L321.11 69.3664L320.626 70.2044C320.991 70.0016 321.403 69.9138 321.86 69.9413C322.326 69.9738 322.776 70.1156 323.211 70.3664ZM319.582 74.9932C319.99 75.2288 320.379 75.2705 320.751 75.1185C321.131 74.9716 321.47 74.6409 321.767 74.1266C322.079 73.5856 322.206 73.1093 322.149 72.6975C322.096 72.2768 321.866 71.9487 321.458 71.7132C321.05 71.4777 320.653 71.4378 320.267 71.5936C319.882 71.7494 319.535 72.0933 319.228 72.6254C318.926 73.1486 318.804 73.6161 318.862 74.0279C318.925 74.4308 319.165 74.7526 319.582 74.9932ZM332.007 75.4448C332.787 75.8954 333.232 76.4658 333.342 77.1559C333.457 77.8372 333.241 78.6523 332.693 79.6012L330.451 83.4854L328.083 82.1184L330.264 78.3406C330.489 77.9504 330.582 77.6257 330.543 77.3664C330.512 77.1122 330.359 76.9058 330.084 76.7471C329.73 76.5423 329.379 76.4937 329.033 76.6014C328.701 76.7053 328.425 76.948 328.205 77.3293L326.101 80.9741L323.733 79.607L329.147 70.229L331.515 71.5961L329.426 75.2143C329.845 75.0421 330.273 74.9761 330.711 75.0161C331.149 75.0562 331.581 75.1991 332.007 75.4448ZM340.41 80.2964C340.969 80.619 341.381 81.052 341.646 81.5956C341.926 82.1354 342.034 82.736 341.972 83.3974C341.918 84.064 341.696 84.7343 341.307 85.4083C340.918 86.0822 340.451 86.6047 339.906 86.9757C339.374 87.3429 338.812 87.5386 338.219 87.5626C337.626 87.5866 337.045 87.4348 336.478 87.1071C336.061 86.8665 335.724 86.5595 335.466 86.1862C335.218 85.8181 335.078 85.4358 335.047 85.0394L333.188 88.2585L330.82 86.8914L335.981 77.9524L338.309 79.2964L337.825 80.1344C338.191 79.9316 338.602 79.8438 339.059 79.8713C339.525 79.9038 339.975 80.0456 340.41 80.2964ZM336.781 84.9232C337.189 85.1588 337.579 85.2005 337.95 85.0485C338.331 84.9016 338.669 84.5709 338.966 84.0566C339.278 83.5156 339.406 83.0393 339.348 82.6275C339.295 82.2068 339.065 81.8787 338.657 81.6432C338.249 81.4077 337.852 81.3678 337.467 81.5236C337.081 81.6794 336.735 82.0233 336.428 82.5554C336.125 83.0786 336.003 83.5461 336.061 83.9579C336.124 84.3608 336.364 84.6826 336.781 84.9232Z" fill="white"/>
<path fill-rule="evenodd" clip-rule="evenodd" d="M89.8 123.6C100.735 123.6 109.6 114.735 109.6 103.8C109.6 92.8648 100.735 84 89.8 84C78.8648 84 70 92.8648 70 103.8C70 114.735 78.8648 123.6 89.8 123.6Z" fill="url(#paint29_linear)"/>
<path d="M81.1211 104.697C80.8809 104.531 80.7816 104.224 80.8788 103.949L82.3238 99.8519C82.3883 99.6692 82.5312 99.5248 82.7133 99.4586L92.9584 95.7296C93.1374 95.6645 93.336 95.6814 93.5014 95.7758L97.3202 97.9566C97.5805 98.1052 97.7048 98.4129 97.6209 98.7007L93.6472 112.33C93.5234 112.755 93.02 112.933 92.6563 112.682L81.1211 104.697Z" fill="url(#paint30_linear)"/>
<path d="M80.3353 105.258L97.8115 98.8977" stroke="#FFCAE7" stroke-width="1.8"/>
<path fill-rule="evenodd" clip-rule="evenodd" d="M223.6 52.2C235.529 52.2 245.2 42.5294 245.2 30.6C245.2 18.6706 235.529 9 223.6 9C211.671 9 202 18.6706 202 30.6C202 42.5294 211.671 52.2 223.6 52.2Z" fill="url(#paint31_linear)"/>
<path d="M217.651 22.9044V22.9044C220.523 21.9153 223.654 23.4421 224.643 26.3146L224.851 26.9202C224.885 27.0164 224.833 27.1213 224.737 27.1544L217.909 29.5056C216.154 30.1098 215.222 32.0219 215.826 33.7765L216.97 37.1" stroke="#246493" stroke-width="4" stroke-linecap="round"/>
<path d="M229.381 38.349V38.349C226.509 39.3381 223.378 37.8113 222.389 34.9388L222.181 34.3332C222.148 34.237 222.199 34.1322 222.295 34.099L229.123 31.7478C230.878 31.1436 231.811 29.2315 231.206 27.4769L230.062 24.1534" stroke="#2385B2" stroke-width="4" stroke-linecap="round"/>
<path d="M110 106C110 106 126.849 108.837 138.893 118.919C150.937 129 158 151 158 151" stroke="#FFC3E7"/>
<path d="M188.345 151C188.345 151 184.674 115.74 191.023 89.8501C197.373 63.9598 213 49 213 49" stroke="#A0C5FA"/>
<path d="M214 151C214 151 225.548 119.938 245.457 103.677C265.367 87.4157 302 82 302 82" stroke="#8EDFB4"/>
<defs>
<linearGradient id="paint0_linear" x1="498.433" y1="66.4962" x2="471.777" y2="256.93" gradientUnits="userSpaceOnUse">
<stop stop-color="#AFE6C6"/>
<stop offset="1" stop-color="#1A5ABB"/>
</linearGradient>
<linearGradient id="paint1_linear" x1="305.314" y1="74.4642" x2="379.235" y2="350.77" gradientUnits="userSpaceOnUse">
<stop stop-color="#B78154"/>
<stop offset="1" stop-color="#814A2A"/>
</linearGradient>
<linearGradient id="paint2_linear" x1="302" y1="257.25" x2="364" y2="257.25" gradientUnits="userSpaceOnUse">
<stop stop-color="#FFAF73"/>
<stop offset="1" stop-color="#FFFECC"/>
</linearGradient>
<linearGradient id="paint3_linear" x1="352.595" y1="224.955" x2="346.638" y2="140.658" gradientUnits="userSpaceOnUse">
<stop stop-color="#E7D1FF"/>
<stop offset="1" stop-color="#8383EF"/>
</linearGradient>
<linearGradient id="paint4_linear" x1="346.547" y1="227.473" x2="343.107" y2="146.998" gradientUnits="userSpaceOnUse">
<stop stop-color="#E7D1FF"/>
<stop offset="1" stop-color="#7878E6"/>
</linearGradient>
<linearGradient id="paint5_linear" x1="200.532" y1="224.955" x2="183.344" y2="143.881" gradientUnits="userSpaceOnUse">
<stop stop-color="#E7D1FF"/>
<stop offset="1" stop-color="#8383EF"/>
</linearGradient>
<linearGradient id="paint6_linear" x1="332.969" y1="227.222" x2="329.792" y2="174.464" gradientUnits="userSpaceOnUse">
<stop stop-color="#E7D1FF"/>
<stop offset="1" stop-color="#8383EF"/>
</linearGradient>
<linearGradient id="paint7_linear" x1="227.945" y1="170.99" x2="274.771" y2="167.071" gradientUnits="userSpaceOnUse">
<stop stop-color="#FF8989"/>
<stop offset="1" stop-color="#FFDDC5"/>
</linearGradient>
<linearGradient id="paint8_linear" x1="166.965" y1="292.063" x2="187.908" y2="227.742" gradientUnits="userSpaceOnUse">
<stop stop-color="#FF8989"/>
<stop offset="1" stop-color="#FFDDC5"/>
</linearGradient>
<linearGradient id="paint9_linear" x1="163.965" y1="292.063" x2="184.908" y2="227.742" gradientUnits="userSpaceOnUse">
<stop stop-color="#FF8989"/>
<stop offset="1" stop-color="#FFDDC5"/>
</linearGradient>
<linearGradient id="paint10_linear" x1="-12.6017" y1="249.016" x2="32.6797" y2="334.458" gradientUnits="userSpaceOnUse">
<stop stop-color="#9CB3FF"/>
<stop offset="1" stop-color="#B0FFE9"/>
</linearGradient>
<linearGradient id="paint11_linear" x1="-15.6017" y1="249.016" x2="29.6797" y2="334.458" gradientUnits="userSpaceOnUse">
<stop stop-color="#7F9AEE"/>
<stop offset="1" stop-color="#B0FFE9"/>
</linearGradient>
<linearGradient id="paint12_linear" x1="156.597" y1="223.878" x2="194.315" y2="312.834" gradientUnits="userSpaceOnUse">
<stop stop-color="#FFAF73"/>
<stop offset="1" stop-color="#FFFECC"/>
</linearGradient>
<linearGradient id="paint13_linear" x1="119.232" y1="211.926" x2="133.741" y2="310.641" gradientUnits="userSpaceOnUse">
<stop stop-color="#FFAF73"/>
<stop offset="1" stop-color="#FFFECC"/>
</linearGradient>
<linearGradient id="paint14_linear" x1="257.559" y1="283.204" x2="320.815" y2="252.499" gradientUnits="userSpaceOnUse">
<stop stop-color="#FFAF73"/>
<stop offset="1" stop-color="#FFFECC"/>
</linearGradient>
<linearGradient id="paint15_linear" x1="391.138" y1="186.994" x2="337.93" y2="231.386" gradientUnits="userSpaceOnUse">
<stop stop-color="#7D9AF7"/>
<stop offset="1" stop-color="#B0C6FF"/>
</linearGradient>
<linearGradient id="paint16_linear" x1="310.299" y1="246.329" x2="313.532" y2="261.246" gradientUnits="userSpaceOnUse">
<stop stop-color="#FDA181"/>
<stop offset="1" stop-color="#EC825D"/>
</linearGradient>
<linearGradient id="paint17_linear" x1="339.108" y1="263.281" x2="247.109" y2="318.742" gradientUnits="userSpaceOnUse">
<stop stop-color="#7D9AF7"/>
<stop offset="1" stop-color="#B0C6FF"/>
</linearGradient>
<linearGradient id="paint18_linear" x1="345.228" y1="454.765" x2="379.029" y2="434.121" gradientUnits="userSpaceOnUse">
<stop stop-color="#FDA181"/>
<stop offset="1" stop-color="#EC825D"/>
</linearGradient>
<linearGradient id="paint19_linear" x1="454.491" y1="264.407" x2="572.134" y2="234.033" gradientUnits="userSpaceOnUse">
<stop stop-color="#BEE1FF"/>
<stop offset="1" stop-color="#3C88FE"/>
</linearGradient>
<linearGradient id="paint20_linear" x1="354.023" y1="281.588" x2="361.961" y2="321.522" gradientUnits="userSpaceOnUse">
<stop stop-color="#5C579A" stop-opacity="0.01"/>
<stop offset="1" stop-color="#2F2C61"/>
</linearGradient>
<linearGradient id="paint21_linear" x1="421.767" y1="172.759" x2="356.924" y2="223.08" gradientUnits="userSpaceOnUse">
<stop stop-color="#7D9AF7"/>
<stop offset="1" stop-color="#B0C6FF"/>
</linearGradient>
<linearGradient id="paint22_linear" x1="-581.598" y1="217.848" x2="-581.051" y2="303.564" gradientUnits="userSpaceOnUse">
<stop stop-color="#B78154"/>
<stop offset="1" stop-color="#814A2A"/>
</linearGradient>
<linearGradient id="paint23_linear" x1="126.966" y1="389.008" x2="159.086" y2="374.539" gradientUnits="userSpaceOnUse">
<stop stop-color="#BEE1FF"/>
<stop offset="1" stop-color="#3C88FE"/>
</linearGradient>
<linearGradient id="paint24_linear" x1="129" y1="384" x2="129" y2="410" gradientUnits="userSpaceOnUse">
<stop stop-color="#6FBDFF"/>
<stop offset="1" stop-color="#3C88FE"/>
</linearGradient>
<linearGradient id="paint25_linear" x1="594.15" y1="371.222" x2="575.432" y2="330.552" gradientUnits="userSpaceOnUse">
<stop stop-color="#FFAF73"/>
<stop offset="1" stop-color="#FFFECC"/>
</linearGradient>
<linearGradient id="paint26_linear" x1="565.711" y1="403.487" x2="519.422" y2="375.077" gradientUnits="userSpaceOnUse">
<stop stop-color="#F4845A"/>
<stop offset="1" stop-color="#FFFECC"/>
</linearGradient>
<linearGradient id="paint27_linear" x1="608.09" y1="364.658" x2="578.396" y2="389.36" gradientUnits="userSpaceOnUse">
<stop stop-color="#FFC4AF"/>
<stop offset="1" stop-color="#D74D4E"/>
</linearGradient>
<linearGradient id="paint28_linear" x1="279.127" y1="90.8968" x2="356.92" y2="136.644" gradientUnits="userSpaceOnUse">
<stop stop-color="#6FD6B4"/>
<stop offset="1" stop-color="#FEFFB5"/>
</linearGradient>
<linearGradient id="paint29_linear" x1="50.2" y1="103.8" x2="89.8" y2="143.4" gradientUnits="userSpaceOnUse">
<stop stop-color="#FFA8E8"/>
<stop offset="1" stop-color="#FFE6E6"/>
</linearGradient>
<linearGradient id="paint30_linear" x1="76.1271" y1="106.788" x2="90.3069" y2="119.982" gradientUnits="userSpaceOnUse">
<stop stop-color="#FF2E45"/>
<stop offset="1" stop-color="#BD0A22"/>
</linearGradient>
<linearGradient id="paint31_linear" x1="179.854" y1="32.5921" x2="225.021" y2="87.7963" gradientUnits="userSpaceOnUse">
<stop stop-color="#9CB3FF"/>
<stop offset="1" stop-color="#B0FFE9"/>
</linearGradient>
</defs>
</svg>
